<mxfile host="app.diagrams.net" modified="2022-02-25T08:00:21.031Z" agent="5.0 (Macintosh; Intel Mac OS X 10_15_7) AppleWebKit/537.36 (KHTML, like Gecko) Chrome/98.0.4758.102 Safari/537.36" etag="DO0-VtWcvwHeKnMt1fH4" version="15.5.9" type="github">
  <diagram name="Page-1" id="197159a0-c6a4-9194-75a8-e4174976684c">
    <mxGraphModel dx="1854" dy="1093" grid="1" gridSize="10" guides="1" tooltips="1" connect="1" arrows="1" fold="1" page="1" pageScale="1.5" pageWidth="1169" pageHeight="826" background="none" math="0" shadow="0">
      <root>
        <mxCell id="0" style=";html=1;" />
        <mxCell id="1" style=";html=1;" parent="0" />
        <mxCell id="6QwkZyCb-YYA8CWYFEFS-17" value="" style="rounded=0;whiteSpace=wrap;html=1;fontSize=19;fillColor=#66FFFF;" vertex="1" parent="1">
          <mxGeometry x="670" y="110" width="690" height="370" as="geometry" />
        </mxCell>
        <mxCell id="6QwkZyCb-YYA8CWYFEFS-15" value="" style="rounded=0;whiteSpace=wrap;html=1;fillColor=#66FFFF;" vertex="1" parent="1">
          <mxGeometry x="150" y="155" width="380" height="230" as="geometry" />
        </mxCell>
        <mxCell id="6QwkZyCb-YYA8CWYFEFS-10" style="edgeStyle=orthogonalEdgeStyle;rounded=0;orthogonalLoop=1;jettySize=auto;html=1;" edge="1" parent="1" source="6QwkZyCb-YYA8CWYFEFS-1" target="6QwkZyCb-YYA8CWYFEFS-9">
          <mxGeometry relative="1" as="geometry" />
        </mxCell>
        <mxCell id="6QwkZyCb-YYA8CWYFEFS-1" value="移动用户" style="sketch=0;outlineConnect=0;gradientColor=none;fontColor=#545B64;strokeColor=none;fillColor=#879196;dashed=0;verticalLabelPosition=bottom;verticalAlign=top;align=center;html=1;fontSize=12;fontStyle=0;aspect=fixed;shape=mxgraph.aws4.illustration_users;pointerEvents=1" vertex="1" parent="1">
          <mxGeometry x="230" y="185" width="30" height="30" as="geometry" />
        </mxCell>
        <mxCell id="6QwkZyCb-YYA8CWYFEFS-14" style="edgeStyle=orthogonalEdgeStyle;rounded=0;orthogonalLoop=1;jettySize=auto;html=1;" edge="1" parent="1" source="6QwkZyCb-YYA8CWYFEFS-9" target="6QwkZyCb-YYA8CWYFEFS-13">
          <mxGeometry relative="1" as="geometry">
            <mxPoint x="550" y="330" as="targetPoint" />
          </mxGeometry>
        </mxCell>
        <mxCell id="6QwkZyCb-YYA8CWYFEFS-9" value="" style="shape=image;html=1;verticalAlign=top;verticalLabelPosition=bottom;labelBackgroundColor=#ffffff;imageAspect=0;aspect=fixed;image=https://cdn4.iconfinder.com/data/icons/socialcones/508/WeChat-128.png" vertex="1" parent="1">
          <mxGeometry x="220" y="305" width="50" height="50" as="geometry" />
        </mxCell>
        <mxCell id="6QwkZyCb-YYA8CWYFEFS-11" value="微信公众号（运营权限回收）" style="text;html=1;align=center;verticalAlign=middle;resizable=0;points=[];autosize=1;strokeColor=none;fillColor=none;" vertex="1" parent="1">
          <mxGeometry x="160" y="360" width="170" height="20" as="geometry" />
        </mxCell>
        <mxCell id="6QwkZyCb-YYA8CWYFEFS-37" style="edgeStyle=orthogonalEdgeStyle;rounded=0;orthogonalLoop=1;jettySize=auto;html=1;fontSize=12;" edge="1" parent="1" source="6QwkZyCb-YYA8CWYFEFS-13" target="6QwkZyCb-YYA8CWYFEFS-35">
          <mxGeometry relative="1" as="geometry" />
        </mxCell>
        <mxCell id="6QwkZyCb-YYA8CWYFEFS-13" value="智能网关" style="sketch=0;outlineConnect=0;fontColor=#232F3E;gradientColor=none;strokeColor=#232F3E;fillColor=#ffffff;dashed=0;verticalLabelPosition=bottom;verticalAlign=top;align=center;html=1;fontSize=12;fontStyle=0;aspect=fixed;shape=mxgraph.aws4.resourceIcon;resIcon=mxgraph.aws4.customer_gateway;" vertex="1" parent="1">
          <mxGeometry x="580" y="165" width="60" height="60" as="geometry" />
        </mxCell>
        <mxCell id="6QwkZyCb-YYA8CWYFEFS-16" value="外网" style="text;html=1;align=center;verticalAlign=middle;resizable=0;points=[];autosize=1;strokeColor=none;fillColor=none;fontSize=19;" vertex="1" parent="1">
          <mxGeometry x="160" y="165" width="50" height="30" as="geometry" />
        </mxCell>
        <mxCell id="6QwkZyCb-YYA8CWYFEFS-20" value="Devcloud" style="text;html=1;align=center;verticalAlign=middle;resizable=0;points=[];autosize=1;strokeColor=none;fillColor=none;fontSize=19;" vertex="1" parent="1">
          <mxGeometry x="680" y="120" width="90" height="30" as="geometry" />
        </mxCell>
        <mxCell id="6QwkZyCb-YYA8CWYFEFS-21" value="公众号后端（集群）" style="text;html=1;align=center;verticalAlign=middle;resizable=0;points=[];autosize=1;strokeColor=none;fillColor=none;fontSize=12;" vertex="1" parent="1">
          <mxGeometry x="805" y="220" width="120" height="20" as="geometry" />
        </mxCell>
        <mxCell id="6QwkZyCb-YYA8CWYFEFS-22" value="" style="aspect=fixed;perimeter=ellipsePerimeter;html=1;align=center;shadow=0;dashed=0;spacingTop=3;image;image=img/lib/active_directory/database_server.svg;fontSize=12;fillColor=#66FFFF;" vertex="1" parent="1">
          <mxGeometry x="1030" y="170" width="41" height="50" as="geometry" />
        </mxCell>
        <mxCell id="6QwkZyCb-YYA8CWYFEFS-26" value="" style="edgeStyle=orthogonalEdgeStyle;rounded=0;orthogonalLoop=1;jettySize=auto;html=1;fontSize=12;" edge="1" parent="1" source="6QwkZyCb-YYA8CWYFEFS-23" target="6QwkZyCb-YYA8CWYFEFS-25">
          <mxGeometry relative="1" as="geometry" />
        </mxCell>
        <mxCell id="6QwkZyCb-YYA8CWYFEFS-23" value="Mysql（主）" style="text;html=1;align=center;verticalAlign=middle;resizable=0;points=[];autosize=1;strokeColor=none;fillColor=none;fontSize=12;" vertex="1" parent="1">
          <mxGeometry x="1006" y="225" width="80" height="20" as="geometry" />
        </mxCell>
        <mxCell id="6QwkZyCb-YYA8CWYFEFS-25" value="" style="aspect=fixed;perimeter=ellipsePerimeter;html=1;align=center;shadow=0;dashed=0;spacingTop=3;image;image=img/lib/active_directory/database_server.svg;fontSize=12;fillColor=#66FFFF;" vertex="1" parent="1">
          <mxGeometry x="1025.5" y="295" width="41" height="50" as="geometry" />
        </mxCell>
        <mxCell id="6QwkZyCb-YYA8CWYFEFS-27" value="Mysql（从）" style="text;html=1;align=center;verticalAlign=middle;resizable=0;points=[];autosize=1;strokeColor=none;fillColor=none;fontSize=12;" vertex="1" parent="1">
          <mxGeometry x="1010.5" y="345" width="80" height="20" as="geometry" />
        </mxCell>
        <mxCell id="6QwkZyCb-YYA8CWYFEFS-28" value="主从复制" style="text;html=1;align=center;verticalAlign=middle;resizable=0;points=[];autosize=1;strokeColor=none;fillColor=none;fontSize=12;" vertex="1" parent="1">
          <mxGeometry x="1050" y="260" width="60" height="20" as="geometry" />
        </mxCell>
        <mxCell id="6QwkZyCb-YYA8CWYFEFS-40" style="edgeStyle=orthogonalEdgeStyle;rounded=0;orthogonalLoop=1;jettySize=auto;html=1;fontSize=12;" edge="1" parent="1" source="6QwkZyCb-YYA8CWYFEFS-35" target="6QwkZyCb-YYA8CWYFEFS-39">
          <mxGeometry relative="1" as="geometry" />
        </mxCell>
        <mxCell id="6QwkZyCb-YYA8CWYFEFS-35" value="" style="sketch=0;outlineConnect=0;fontColor=#232F3E;gradientColor=none;fillColor=#A166FF;strokeColor=none;dashed=0;verticalLabelPosition=bottom;verticalAlign=top;align=center;html=1;fontSize=12;fontStyle=0;aspect=fixed;pointerEvents=1;shape=mxgraph.aws4.application_load_balancer;" vertex="1" parent="1">
          <mxGeometry x="720" y="173.5" width="43" height="43" as="geometry" />
        </mxCell>
        <mxCell id="6QwkZyCb-YYA8CWYFEFS-36" value="负载均衡（CLB）" style="text;html=1;align=center;verticalAlign=middle;resizable=0;points=[];autosize=1;strokeColor=none;fillColor=none;fontSize=12;" vertex="1" parent="1">
          <mxGeometry x="690" y="220" width="110" height="20" as="geometry" />
        </mxCell>
        <mxCell id="6QwkZyCb-YYA8CWYFEFS-43" style="edgeStyle=orthogonalEdgeStyle;rounded=0;orthogonalLoop=1;jettySize=auto;html=1;entryX=0;entryY=0.5;entryDx=0;entryDy=0;fontSize=12;startArrow=none;" edge="1" parent="1" source="6QwkZyCb-YYA8CWYFEFS-44" target="6QwkZyCb-YYA8CWYFEFS-25">
          <mxGeometry relative="1" as="geometry" />
        </mxCell>
        <mxCell id="6QwkZyCb-YYA8CWYFEFS-46" style="edgeStyle=orthogonalEdgeStyle;rounded=0;orthogonalLoop=1;jettySize=auto;html=1;fontSize=12;startArrow=none;" edge="1" parent="1" source="6QwkZyCb-YYA8CWYFEFS-47" target="6QwkZyCb-YYA8CWYFEFS-22">
          <mxGeometry relative="1" as="geometry" />
        </mxCell>
        <mxCell id="6QwkZyCb-YYA8CWYFEFS-55" style="edgeStyle=orthogonalEdgeStyle;rounded=0;orthogonalLoop=1;jettySize=auto;html=1;fontSize=12;" edge="1" parent="1" source="6QwkZyCb-YYA8CWYFEFS-39" target="6QwkZyCb-YYA8CWYFEFS-53">
          <mxGeometry relative="1" as="geometry" />
        </mxCell>
        <mxCell id="6QwkZyCb-YYA8CWYFEFS-39" value="" style="aspect=fixed;perimeter=ellipsePerimeter;html=1;align=center;shadow=0;dashed=0;spacingTop=3;image;image=img/lib/active_directory/server_farm.svg;fontSize=12;fillColor=#66FFFF;" vertex="1" parent="1">
          <mxGeometry x="840" y="170" width="50" height="50" as="geometry" />
        </mxCell>
        <mxCell id="6QwkZyCb-YYA8CWYFEFS-44" value="读" style="text;html=1;align=center;verticalAlign=middle;resizable=0;points=[];autosize=1;strokeColor=none;fillColor=none;fontSize=12;" vertex="1" parent="1">
          <mxGeometry x="940" y="250" width="30" height="20" as="geometry" />
        </mxCell>
        <mxCell id="6QwkZyCb-YYA8CWYFEFS-45" value="" style="edgeStyle=orthogonalEdgeStyle;rounded=0;orthogonalLoop=1;jettySize=auto;html=1;entryX=0;entryY=0.5;entryDx=0;entryDy=0;fontSize=12;endArrow=none;" edge="1" parent="1" source="6QwkZyCb-YYA8CWYFEFS-39" target="6QwkZyCb-YYA8CWYFEFS-44">
          <mxGeometry relative="1" as="geometry">
            <mxPoint x="890" y="195" as="sourcePoint" />
            <mxPoint x="1025.5" y="320" as="targetPoint" />
          </mxGeometry>
        </mxCell>
        <mxCell id="6QwkZyCb-YYA8CWYFEFS-47" value="写" style="text;html=1;align=center;verticalAlign=middle;resizable=0;points=[];autosize=1;strokeColor=none;fillColor=none;fontSize=12;" vertex="1" parent="1">
          <mxGeometry x="940" y="185" width="30" height="20" as="geometry" />
        </mxCell>
        <mxCell id="6QwkZyCb-YYA8CWYFEFS-48" value="" style="edgeStyle=orthogonalEdgeStyle;rounded=0;orthogonalLoop=1;jettySize=auto;html=1;fontSize=12;endArrow=none;" edge="1" parent="1" source="6QwkZyCb-YYA8CWYFEFS-39" target="6QwkZyCb-YYA8CWYFEFS-47">
          <mxGeometry relative="1" as="geometry">
            <mxPoint x="890" y="195" as="sourcePoint" />
            <mxPoint x="1030" y="195" as="targetPoint" />
          </mxGeometry>
        </mxCell>
        <mxCell id="6QwkZyCb-YYA8CWYFEFS-49" value="" style="rounded=0;whiteSpace=wrap;html=1;fontSize=19;fillColor=#66FFFF;" vertex="1" parent="1">
          <mxGeometry x="670" y="550" width="550" height="290" as="geometry" />
        </mxCell>
        <mxCell id="6QwkZyCb-YYA8CWYFEFS-51" value="内网" style="text;html=1;align=center;verticalAlign=middle;resizable=0;points=[];autosize=1;strokeColor=none;fillColor=none;fontSize=19;" vertex="1" parent="1">
          <mxGeometry x="700" y="570" width="50" height="30" as="geometry" />
        </mxCell>
        <mxCell id="6QwkZyCb-YYA8CWYFEFS-58" style="edgeStyle=orthogonalEdgeStyle;rounded=0;orthogonalLoop=1;jettySize=auto;html=1;entryX=0.75;entryY=0;entryDx=0;entryDy=0;fontSize=12;" edge="1" parent="1" source="6QwkZyCb-YYA8CWYFEFS-53" target="6QwkZyCb-YYA8CWYFEFS-56">
          <mxGeometry relative="1" as="geometry" />
        </mxCell>
        <mxCell id="6QwkZyCb-YYA8CWYFEFS-60" style="edgeStyle=orthogonalEdgeStyle;rounded=0;orthogonalLoop=1;jettySize=auto;html=1;fontSize=12;" edge="1" parent="1" source="6QwkZyCb-YYA8CWYFEFS-53" target="6QwkZyCb-YYA8CWYFEFS-59">
          <mxGeometry relative="1" as="geometry" />
        </mxCell>
        <mxCell id="6QwkZyCb-YYA8CWYFEFS-65" style="edgeStyle=orthogonalEdgeStyle;rounded=0;orthogonalLoop=1;jettySize=auto;html=1;fontSize=12;" edge="1" parent="1" source="6QwkZyCb-YYA8CWYFEFS-53" target="6QwkZyCb-YYA8CWYFEFS-63">
          <mxGeometry relative="1" as="geometry" />
        </mxCell>
        <mxCell id="6QwkZyCb-YYA8CWYFEFS-53" value="iGate" style="sketch=0;outlineConnect=0;fontColor=#232F3E;gradientColor=none;strokeColor=#232F3E;fillColor=#ffffff;dashed=0;verticalLabelPosition=bottom;verticalAlign=top;align=center;html=1;fontSize=12;fontStyle=0;aspect=fixed;shape=mxgraph.aws4.resourceIcon;resIcon=mxgraph.aws4.customer_gateway;" vertex="1" parent="1">
          <mxGeometry x="835" y="385" width="60" height="60" as="geometry" />
        </mxCell>
        <mxCell id="6QwkZyCb-YYA8CWYFEFS-56" value="" style="aspect=fixed;perimeter=ellipsePerimeter;html=1;align=center;shadow=0;dashed=0;spacingTop=3;image;image=img/lib/active_directory/generic_server.svg;fontSize=12;fillColor=#66FFFF;" vertex="1" parent="1">
          <mxGeometry x="742" y="650" width="28.000000000000004" height="50" as="geometry" />
        </mxCell>
        <mxCell id="6QwkZyCb-YYA8CWYFEFS-57" value="铁将军API" style="text;html=1;align=center;verticalAlign=middle;resizable=0;points=[];autosize=1;strokeColor=none;fillColor=none;fontSize=12;" vertex="1" parent="1">
          <mxGeometry x="721" y="710" width="70" height="20" as="geometry" />
        </mxCell>
        <mxCell id="6QwkZyCb-YYA8CWYFEFS-59" value="" style="aspect=fixed;perimeter=ellipsePerimeter;html=1;align=center;shadow=0;dashed=0;spacingTop=3;image;image=img/lib/active_directory/generic_server.svg;fontSize=12;fillColor=#66FFFF;" vertex="1" parent="1">
          <mxGeometry x="851" y="650" width="28.000000000000004" height="50" as="geometry" />
        </mxCell>
        <mxCell id="6QwkZyCb-YYA8CWYFEFS-61" value="TOC API" style="text;html=1;align=center;verticalAlign=middle;resizable=0;points=[];autosize=1;strokeColor=none;fillColor=none;fontSize=12;" vertex="1" parent="1">
          <mxGeometry x="835" y="710" width="60" height="20" as="geometry" />
        </mxCell>
        <mxCell id="6QwkZyCb-YYA8CWYFEFS-62" value="............" style="text;html=1;align=center;verticalAlign=middle;resizable=0;points=[];autosize=1;strokeColor=none;fillColor=none;fontSize=12;" vertex="1" parent="1">
          <mxGeometry x="870" y="665" width="60" height="20" as="geometry" />
        </mxCell>
        <mxCell id="6QwkZyCb-YYA8CWYFEFS-63" value="" style="aspect=fixed;perimeter=ellipsePerimeter;html=1;align=center;shadow=0;dashed=0;spacingTop=3;image;image=img/lib/active_directory/generic_server.svg;fontSize=12;fillColor=#66FFFF;" vertex="1" parent="1">
          <mxGeometry x="960" y="650" width="28.000000000000004" height="50" as="geometry" />
        </mxCell>
        <mxCell id="6QwkZyCb-YYA8CWYFEFS-64" value="other" style="text;html=1;align=center;verticalAlign=middle;resizable=0;points=[];autosize=1;strokeColor=none;fillColor=none;fontSize=12;" vertex="1" parent="1">
          <mxGeometry x="954" y="710" width="40" height="20" as="geometry" />
        </mxCell>
      </root>
    </mxGraphModel>
  </diagram>
</mxfile>
